# xmcd
#
# Track frame offsets: 
#        150
#        13550
#        24966
#        36892
#        47827
#        61266
#        74763
#        86566
#        97807
#        114608
#        125660
#        142195
#        153240
#        163599
#
# Disc length: 2352 seconds
#
# Revision: 0
# Processed by: cddbd v1.5.2PL0 Copyright (c) Steve Scherf et al.
# Submitted via: ExactAudioCopy v1.0b1
#
DISCID=ba092e0e
DTITLE=Various Artist - Sunshine Country [disc 01]
DYEAR=2005
DGENRE=Country
TTITLE0=Lynn Anderson - Top of the World
TTITLE1=Wynn Stewart - It's Such a Pretty World Today
TTITLE2=Donna Fargo - The happiest Girl in the Whole USA
TTITLE3=Jerry Wallace - Primrose Lane
TTITLE4=Johnny Carver - Afternoon Delight
TTITLE5=David Houston - We'll Sing in the Sunshine
TTITLE6=Billie Jo Spears - Try a Little Kindness
TTITLE7=Kenny Price - Happy Tracks
TTITLE8=Ray Price - You're the Best Thing That Ever happened to Me
TTITLE9=Wilma lee and Stoney Cooper - Keep on the Sunny Side
TTITLE10=Judy Rodman - Everything Is Beautiful
TTITLE11=Jack Blanchard and Misty Morgan - Because We Love
TTITLE12=Freddy Weller - Indian Lake
TTITLE13=B.W. Stevenson - Sunny
EXTD=
EXTT0=
EXTT1=
EXTT2=
EXTT3=
EXTT4=
EXTT5=
EXTT6=
EXTT7=
EXTT8=
EXTT9=
EXTT10=
EXTT11=
EXTT12=
EXTT13=
PLAYORDER=
